<svg width="1200" height="630" viewBox="0 0 1200 630" xmlns="http://www.w3.org/2000/svg">
  <defs>
    <radialGradient id="bg" cx="0.25" cy="0.3" r="0.9">
      <stop offset="0" stop-color="#0f1b22"/>
      <stop offset="0.55" stop-color="#0b0f17"/>
      <stop offset="1" stop-color="#0b0f17"/>
    </radialGradient>
    <linearGradient id="og_g" x1="0" y1="0" x2="1" y2="1"><stop offset="0" stop-color="#34d399"/><stop offset="1" stop-color="#06b6d4"/></linearGradient>
    <linearGradient id="og_sheen" x1="0" y1="0" x2="0" y2="1"><stop offset="0" stop-color="#ffffff" stop-opacity="0.22"/><stop offset="0.55" stop-color="#ffffff" stop-opacity="0"/></linearGradient>
  </defs>
  <rect width="1200" height="630" fill="url(#bg)"/>
  <rect x="0" y="0" width="1200" height="6" fill="url(#og_g)"/>
  <g transform="translate(96,175) scale(0.55)">
    <rect x="16" y="16" width="480" height="480" rx="116" fill="url(#og_g)"/>
    <rect x="16" y="16" width="480" height="250" rx="116" fill="url(#og_sheen)"/>
    <path d="M159.6 370.9 A150 150 0 1 1 352.4 370.9" fill="none" stroke="#ffffff" stroke-opacity="0.45" stroke-width="26" stroke-linecap="round"/>
    <g stroke="#ffffff" stroke-opacity="0.6" stroke-width="11" stroke-linecap="round">
      <line x1="118" y1="256" x2="150" y2="256"/><line x1="362" y1="256" x2="394" y2="256"/><line x1="256" y1="104" x2="256" y2="136"/>
    </g>
    <path d="M286 138 L194 288 L250 288 L226 374 L326 224 L270 224 Z" fill="#ffffff"/>
  </g>
  <text x="430" y="250" font-family="DejaVu Sans" font-weight="bold" font-size="92" fill="#ffffff">GridSense AI</text>
  <text x="432" y="322" font-family="DejaVu Sans" font-weight="bold" font-size="46" fill="#34d399">See your power. Spend less.</text>
  <text x="432" y="386" font-family="DejaVu Sans" font-size="30" fill="#94a3b8">Home &amp; rental energy intelligence for Rwanda</text>
  <text x="432" y="430" font-family="DejaVu Sans" font-size="30" fill="#94a3b8">Live cost across the real RURA tariff · Kigali</text>
  <text x="96" y="560" font-family="DejaVu Sans" font-size="26" fill="#64748b">gridsense-ai-zeta.vercel.app</text>
</svg>